<?xml version="1.0" encoding="UTF-8"?>
<svg width="1000px" height="1000px" viewBox="0 0 1000 1000" version="1.1" xmlns="http://www.w3.org/2000/svg" xmlns:xlink="http://www.w3.org/1999/xlink">
    <!-- Generator: Sketch 52.5 (67469) - http://www.bohemiancoding.com/sketch -->
    <title>Slice</title>
    <desc>Created with Sketch.</desc>
    <g id="Logos" stroke="none" stroke-width="1" fill="none" fill-rule="evenodd">
        <g id="Group-18" transform="translate(382.000000, 384.000000)">
            <path d="M270.896274,12.0845921 L270.896274,228.600201 C270.896274,250.847321 252.86142,268.882175 230.6143,268.882175 L12.0845921,268.882175 L12.0845921,592.145015 C12.0845921,598.819151 17.4950483,604.229607 24.1691843,604.229607 L592.145015,604.229607 C598.819151,604.229607 604.229607,598.819151 604.229607,592.145015 L604.229607,24.1691843 C604.229607,17.4950483 598.819151,12.0845921 592.145015,12.0845921 L270.896274,12.0845921 Z" id="Combined-Shape" stroke="#000000" stroke-width="24.1691843" fill="#000000"></path>
            <path d="M112.480645,499.621229 L112.480645,468.528298 L201.835086,426.567936 L112.480645,380.381349 L112.480645,349.288419 L241.078591,417.813615 L241.078591,436.529748 L112.480645,499.621229 Z M325.963706,536.449748 C314.89497,536.449748 304.027647,535.342891 293.36141,533.129144 C282.695174,530.915397 273.337201,527.896696 265.287211,524.072951 L265.287211,489.961289 C274.947199,494.590033 285.059847,498.262786 295.625458,500.979658 C306.19107,503.696529 316.706212,505.054945 327.171199,505.054945 C339.447433,505.054945 349.107276,502.790919 356.151017,498.2628 C363.194759,493.73468 366.716576,486.23824 366.716576,475.773253 C366.716576,469.132011 365.106602,463.899596 361.886606,460.075851 C358.666611,456.252106 353.635442,452.629665 346.792951,449.208419 C339.950459,445.787173 331.196227,441.460369 320.52999,436.227875 C311.473752,431.800381 303.071701,426.869836 295.323585,421.436093 C287.57547,416.002349 281.336821,409.411519 276.607452,401.663404 C271.878083,393.915289 269.513434,384.104511 269.513434,372.230775 C269.513434,353.313299 275.852706,339.024781 288.53144,329.364794 C301.210174,319.704806 318.215523,314.874884 339.547996,314.874884 C348.805485,314.874884 358.918133,315.93143 369.886244,318.044552 C380.854355,320.157674 391.268873,323.528557 401.130111,328.157301 L389.055187,357.740866 C380.401447,353.917121 371.898773,351.099667 363.546909,349.288419 C355.195044,347.477171 347.59798,346.571561 340.755489,346.571561 C330.290502,346.571561 322.190321,348.785275 316.454703,353.212769 C310.719085,357.640264 307.851319,364.482653 307.851319,373.740141 C307.851319,380.180133 309.310358,385.311924 312.22848,389.13567 C315.146601,392.959415 319.523717,396.430921 325.35996,399.550292 C331.196203,402.669663 338.742955,406.443039 348.000443,410.870534 C359.672929,416.505527 369.785577,421.939188 378.338691,427.171682 C386.891805,432.404175 393.482636,438.642824 398.11138,445.887815 C402.740124,453.132806 405.054461,462.591402 405.054461,474.263887 C405.054461,494.388862 398.010826,509.784237 383.923344,520.450473 C369.835861,531.11671 350.516175,536.449748 325.963706,536.449748 Z M428.055589,533.431017 L428.055589,507.46993 L470.317825,502.941833 L470.317825,348.3828 L428.055589,343.854703 L428.055589,317.893615 L550.012326,317.893615 L550.012326,343.854703 L506.844471,348.3828 L506.844471,502.941833 L550.012326,507.46993 L550.012326,533.431017 L428.055589,533.431017 Z" id="&gt;SI" fill="#FFFFFF"></path>
        </g>
        <path d="M378.457516,2.68195052e-15 C378.457516,1.08705882 378.457516,2.17411765 378.457516,3.32156863 C378.457516,42.334902 346.832157,73.9501961 307.828889,73.9501961 C268.815556,73.9501961 237.200261,42.3248366 237.200261,3.32156863 C237.200261,2.17411765 237.200261,1.08705882 237.200261,0 L0,0 L0,616 L616,616 L616,0 L378.457516,2.68195052e-15 Z" id="Path" fill="#654FF0"></path>
        <g id="Web_Assembly_Logo-(1)" transform="translate(143.000000, 331.000000)" fill="#FFFFFF" fill-rule="nonzero">
            <path d="M0.161153846,0.817431193 L41.0136538,0.817431193 L68.9033413,149.640367 L69.4069471,149.640367 L102.926947,0.817431193 L141.140553,0.817431193 L171.417332,151.466972 L172.011587,151.466972 L203.799183,0.817431193 L243.866058,0.817431193 L191.803293,219.495413 L151.263029,219.495413 L121.238053,70.6724771 L120.452428,70.6724771 L88.3123077,219.495413 L47.0166346,219.495413 L0.161153846,0.817431193 Z M289.925841,0.817431193 L354.326947,0.817431193 L418.28488,219.495413 L376.143149,219.495413 L362.233558,170.833028 L288.868269,170.833028 L278.131394,219.495413 L237.087524,219.495413 L289.925841,0.817431193 Z M314.44137,54.7174312 L296.623798,134.946789 L352.080865,134.946789 L331.624399,54.7174312 L314.44137,54.7174312 Z" id="Shape"></path>
        </g>
    </g>
</svg>
